<svg width="16" height="16" viewBox="0 0 16 16" fill="none" xmlns="http://www.w3.org/2000/svg">
<g clip-path="url(#clip0_1_114)">
<path d="M15.9925 5.68916C15.9322 4.56145 15.4547 3.50255 14.6481 2.70749C13.8294 1.9005 12.7603 1.45605 11.6378 1.45605C9.9569 1.45605 8.76676 2.75441 8.1274 3.45198C8.09101 3.49164 8.05192 3.53426 8.01374 3.57546C7.99326 3.55223 7.97292 3.52906 7.95354 3.50698C7.36911 2.84125 6.15291 1.45605 4.36242 1.45605C3.23992 1.45605 2.17088 1.9005 1.3522 2.70749C0.545529 3.50255 0.0680965 4.56145 0.00776763 5.68916C-0.0521762 6.81018 0.232846 7.78295 0.931699 8.84333C1.55803 9.7939 3.18909 11.2968 4.39548 12.2949C5.63543 13.3209 7.26861 14.5439 8.007 14.5439C8.757 14.5439 10.3844 13.3235 11.6175 12.2997C12.8145 11.3058 14.4366 9.80417 15.0688 8.84295C15.5391 8.12773 16.0693 7.12287 15.9925 5.68916ZM14.2645 8.31398C13.8051 9.01257 12.5104 10.3032 11.0426 11.5258C9.29245 12.9836 8.25627 13.5581 8.00777 13.5809C7.75965 13.5551 6.7209 12.9748 4.96225 11.5143C3.48586 10.2882 2.18917 9.00192 1.73555 8.31359C1.15723 7.43613 0.920852 6.64261 0.969051 5.7405C1.06705 3.90887 2.58933 2.41869 4.36236 2.41869C5.717 2.41869 6.70126 3.53978 7.2301 4.14198C7.54099 4.49612 7.71228 4.69116 8.00019 4.69116C8.29741 4.69116 8.48911 4.482 8.8371 4.10238C9.41433 3.47258 10.3804 2.41869 11.6378 2.41869C13.4109 2.41869 14.9331 3.90887 15.0312 5.7405C15.08 6.65281 14.8507 7.42252 14.2645 8.31398Z" fill="#1D1D1B"/>
</g>
<defs>
<clipPath id="clip0_1_114">
<rect width="16" height="16" fill="white"/>
</clipPath>
</defs>
</svg>
